<?xml version="1.0" standalone="no"?><!DOCTYPE svg PUBLIC "-//W3C//DTD SVG 1.1//EN" "http://www.w3.org/Graphics/SVG/1.1/DTD/svg11.dtd"><svg class="icon" width="200px" height="200.00px" viewBox="0 0 1024 1024" version="1.1" xmlns="http://www.w3.org/2000/svg"><path d="M320.490667 831.402667l55.210666-95.509334c-82.986667-46.997333-139.605333-134.4-139.605333-235.797333 0-150.613333 123.52-272.704 275.904-272.704 152.405333 0 275.904 122.112 275.904 272.704 0 101.312-56.597333 188.8-139.605333 235.797333l55.210666 95.509334c116.288-65.792 194.773333-189.397333 194.773334-331.306667 0-172.885333-116.373333-318.805333-275.882667-365.802667v-70.4h-220.8v70.613334C242.090667 181.504 125.696 327.402667 125.696 500.309333c0 141.781333 78.506667 265.301333 194.794667 331.093334z m246.698666-253.013334c30.506667 0 55.210667-24.384 55.210667-54.485333v-54.506667c0-30.08-24.704-54.506667-55.210667-54.506666h-110.378666c-30.506667 0-55.210667 24.405333-55.210667 54.506666v54.506667c0 30.08 24.704 54.506667 55.210667 54.506667v272.682666l-220.8 54.506667v54.506667h551.893333V905.6l-220.8-54.506667V578.389333h0.106667z" fill="#FE2539" /></svg>