<?xml version="1.0" standalone="no"?><!DOCTYPE svg PUBLIC "-//W3C//DTD SVG 1.1//EN" "http://www.w3.org/Graphics/SVG/1.1/DTD/svg11.dtd"><svg class="icon" width="200px" height="200.00px" viewBox="0 0 1024 1024" version="1.1" xmlns="http://www.w3.org/2000/svg"><path d="M314.059558 257.107225C172.474599 342.5772 77.656627 493.093156 71.062629 666.179105l-0.032 0.928C71.190629 864.232047 231.022582 1024 428.179525 1024c197.252942 0 357.148895-159.899953 357.148895-357.148895 0-151.412956-94.240972-280.833918-227.247933-332.788903l-2.433-0.832c-36.556989-15.172996-78.971977-24.007993-123.499964-24.007993-1.152 0-2.299999 0-3.456999 0.032h0.16c-76.856977 52.433985-137.96696 122.570964-178.300947 204.73894l-1.377 3.105c43.310987-51.409985 107.749968-83.868975 179.742947-83.868976 129.548962 0 234.577931 105.028969 234.577932 234.577931S558.465486 902.393036 428.915524 902.393036h-1.215999a234.066931 234.066931 0 0 1-178.238948-82.044976l-0.256-0.32a282.359917 282.359917 0 0 1-67.38398-239.15593l-0.256 1.728999c45.807987-274.01592 374.05089-431.799873 617.079819-493.099855-125.579963 60.852982-231.728932 122.986964-332.599903 192.258943l8.578998-5.569998C768.395425 389.602186 815.611411 142.347258 952.971371 31.716291 816.315411-21.806694 314.763558-41.524688 314.027558 257.171225z" fill="#47A141" /></svg>